# xmcd CD database file
#
# Track frame offsets:
#	150
#	16240
#	32708
#	46179
#	72580
#	86301
#	104727
#	123441
#	138277
#	152323
#	169614
#	184453
#	201929
#	216651
#	232238
#	248109
#
# Disc length: 3514 seconds
#
# Revision: 0
# Processed by: cddbd v1.5.2PL0 Copyright (c) Steve Scherf et al.
# Submitted via: CDex 1.51
#
DISCID=e50db810
DTITLE=Blues Blosn - 's Leb'n und da Blues
DYEAR=1999
DGENRE=Blues
TTITLE0=Gassi geh'
TTITLE1=Du regst mi auf
TTITLE2=Vui z'spät
TTITLE3=D' Eifersucht
TTITLE4=I glab des net
TTITLE5=Da Bader
TTITLE6=Wenn Jahr um Jahr vergeht
TTITLE7=I hab mei Lebn glebt
TTITLE8=Da Bapp und da Depp
TTITLE9=Verruckt nach Dir
TTITLE10=Double Talk
TTITLE11=Jetz' kimm i!
TTITLE12=Du bist so schee
TTITLE13='s Glück hat mi verlassn
TTITLE14=Kaloderma
TTITLE15=100 Jahr
EXTD=YEAR: 1999
EXTT0=
EXTT1=
EXTT2=
EXTT3=
EXTT4=
EXTT5=
EXTT6=
EXTT7=
EXTT8=
EXTT9=
EXTT10=
EXTT11=
EXTT12=
EXTT13=
EXTT14=
EXTT15=
PLAYORDER=
